<svg width="209" height="12" viewBox="0 0 209 12" fill="none" xmlns="http://www.w3.org/2000/svg">
<path d="M13.8366 7.016H11.8446L9.56456 4.04H4.42856L0.996561 8.432V11.192L3.22856 8.696H10.5246C11.0846 9.416 11.6126 10.016 12.1086 10.496C12.6046 10.96 13.0686 11.192 13.5006 11.192H14.9166L14.6766 10.712L12.6606 8.072C12.8846 7.928 13.0926 7.768 13.2846 7.592C13.4766 7.4 13.6606 7.208 13.8366 7.016ZM9.20456 7.016H4.71656L6.99656 4.16C7.36456 4.56 7.73256 5.032 8.10056 5.576C8.48456 6.104 8.85256 6.584 9.20456 7.016ZM5.19656 3.056H8.82056L7.04456 0.704L5.19656 3.056ZM31.7137 9.056C31.6017 9.056 31.4737 9.032 31.3297 8.984C31.2017 8.936 31.0737 8.872 30.9457 8.792C30.8337 8.696 30.7377 8.592 30.6577 8.48C30.5777 8.368 30.5377 8.248 30.5377 8.12V4.04H28.2337V9.464C28.2337 9.512 28.2417 9.584 28.2577 9.68C28.2737 9.776 28.2977 9.848 28.3297 9.896C28.5377 10.136 28.7777 10.328 29.0497 10.472C29.3377 10.616 29.6257 10.728 29.9137 10.808C30.2177 10.888 30.5057 10.944 30.7777 10.976C31.0657 10.992 31.3137 11 31.5217 11H41.3377L41.8177 10.76L41.2177 9.56V4.04H38.9377V9.056H31.7137ZM38.9377 0.752V3.056H41.2177V1.136C41.0577 1.104 40.8737 1.072 40.6657 1.04C40.4577 0.992 40.2417 0.952 40.0177 0.92C39.8097 0.872 39.6097 0.832 39.4177 0.8C39.2257 0.768 39.0657 0.752 38.9377 0.752ZM30.5377 1.232C30.4097 1.216 30.2337 1.192 30.0097 1.16C29.8017 1.112 29.5857 1.072 29.3617 1.04C29.1377 1.008 28.9217 0.975999 28.7137 0.943999C28.5057 0.911999 28.3457 0.895999 28.2337 0.895999V3.056H30.5377V1.232ZM55.2581 2.84H59.6741V3.056H61.7861V2.84H66.3941C66.0261 2.36 65.5701 1.96 65.0261 1.64C64.4821 1.32 63.8981 1.16 63.2741 1.16H58.3781C57.7541 1.16 57.1701 1.32 56.6261 1.64C56.0821 1.96 55.6261 2.36 55.2581 2.84ZM61.5701 11.96C61.7141 11.912 61.7861 11.84 61.7861 11.744V4.04H59.6741V9.56C59.6741 9.816 59.7381 10.072 59.8661 10.328C59.9941 10.568 60.1461 10.792 60.3221 11C60.5141 11.208 60.7221 11.392 60.9461 11.552C61.1701 11.728 61.3781 11.864 61.5701 11.96ZM79.8441 10.76L80.3241 11H89.4441C89.6361 11 89.9561 10.976 90.4041 10.928C90.8521 10.88 91.3081 10.792 91.7721 10.664C92.2361 10.536 92.6441 10.368 92.9961 10.16C93.3481 9.936 93.5241 9.656 93.5241 9.32V4.04H91.1241V8.12C91.1241 8.248 91.0761 8.376 90.9801 8.504C90.9001 8.616 90.7961 8.72 90.6681 8.816C90.5561 8.896 90.4281 8.96 90.2841 9.008C90.1561 9.056 90.0361 9.08 89.9241 9.08H82.9641V4.04H80.4441V9.56L79.8441 10.76ZM80.4441 3.056H93.5241V1.136H83.2041C83.0281 1.136 82.7801 1.184 82.4601 1.28C82.1561 1.36 81.8521 1.472 81.5481 1.616C81.2441 1.76 80.9801 1.936 80.7561 2.144C80.5481 2.352 80.4441 2.576 80.4441 2.816V3.056ZM116.346 5.192H107.826C107.794 5.192 107.738 5.232 107.658 5.312C107.578 5.392 107.538 5.448 107.538 5.48L107.442 6.968H113.226C113.866 6.968 114.458 6.8 115.002 6.464C115.562 6.128 116.026 5.736 116.394 5.288L116.346 5.192ZM130.714 10.28C130.634 10.36 130.546 10.472 130.45 10.616C130.354 10.744 130.306 10.872 130.306 11H138.538C138.682 11 138.898 10.976 139.186 10.928C139.49 10.88 139.786 10.8 140.074 10.688C140.378 10.576 140.642 10.44 140.866 10.28C141.09 10.12 141.202 9.92 141.202 9.68L141.178 9.56L133.114 9.08V4.04H130.714V10.28ZM130.714 3.056H133.114V1.16C133.082 1.16 132.962 1.144 132.754 1.112C132.562 1.064 132.314 1.024 132.01 0.991999C131.722 0.944 131.49 0.92 131.314 0.92L130.714 0.895999V3.056ZM157.251 11.744V4.04H155.115V9.56C155.115 9.816 155.179 10.072 155.307 10.328C155.435 10.568 155.595 10.792 155.787 11C155.979 11.208 156.187 11.392 156.411 11.552C156.635 11.728 156.843 11.864 157.035 11.96C157.179 11.912 157.251 11.84 157.251 11.744ZM155.115 0.895999V3.056H157.251V1.184L157.131 1.16C157.003 1.144 156.851 1.128 156.675 1.112C156.515 1.08 156.339 1.048 156.147 1.016C155.955 0.984 155.763 0.96 155.571 0.943999C155.395 0.911999 155.243 0.895999 155.115 0.895999ZM171.95 11.696C171.966 11.696 172.078 11.672 172.286 11.624C172.51 11.592 172.75 11.536 173.006 11.456C173.262 11.392 173.486 11.312 173.678 11.216C173.886 11.136 173.99 11.056 173.99 10.976V7.616L175.574 7.376C175.59 7.376 175.654 7.408 175.766 7.472C175.894 7.536 175.99 7.584 176.054 7.616C176.054 7.616 176.07 7.632 176.102 7.664C176.134 7.68 176.182 7.712 176.246 7.76C176.47 7.92 176.838 8.176 177.35 8.528C177.862 8.88 178.382 9.24 178.91 9.608C179.438 9.96 179.918 10.272 180.35 10.544C180.782 10.816 181.038 10.952 181.118 10.952C181.118 10.952 181.198 10.976 181.358 11.024C181.534 11.088 181.758 11.144 182.03 11.192C182.302 11.256 182.606 11.312 182.942 11.36C183.294 11.424 183.654 11.456 184.022 11.456L184.142 11.432C183.726 11 183.286 10.584 182.822 10.184C182.358 9.784 181.902 9.408 181.454 9.056C181.006 8.688 180.582 8.344 180.182 8.024C179.782 7.704 179.438 7.408 179.15 7.136L182.174 4.04H179.27L178.55 4.736C178.214 5.072 177.766 5.312 177.206 5.456H174.11V4.04H171.71V11.456C171.71 11.488 171.742 11.536 171.806 11.6C171.87 11.664 171.918 11.696 171.95 11.696ZM171.71 2.336V3.056H174.11V1.136H171.182C171.182 1.136 171.198 1.216 171.23 1.376C171.262 1.472 171.334 1.64 171.446 1.88C171.558 2.104 171.646 2.256 171.71 2.336ZM182.294 1.184L180.302 3.056H182.294V1.184ZM208.345 1.16H197.641C197.609 1.16 197.553 1.2 197.473 1.28C197.393 1.36 197.353 1.416 197.353 1.448L197.257 2.936H205.465C205.753 2.936 206.033 2.888 206.305 2.792C206.593 2.696 206.865 2.568 207.121 2.408C207.377 2.248 207.609 2.072 207.817 1.88C208.041 1.672 208.233 1.464 208.393 1.256L208.345 1.16ZM208.345 9.224H197.641C197.609 9.224 197.553 9.264 197.473 9.344C197.393 9.424 197.353 9.48 197.353 9.512L197.257 11H205.225C205.897 11 206.497 10.84 207.025 10.52C207.569 10.2 208.025 9.8 208.393 9.32L208.345 9.224ZM208.345 5.192H197.641C197.609 5.192 197.553 5.232 197.473 5.312C197.393 5.392 197.353 5.448 197.353 5.48L197.257 6.968H205.225C205.865 6.968 206.457 6.8 207.001 6.464C207.561 6.128 208.025 5.736 208.393 5.288L208.345 5.192Z" fill="white"/>
</svg>
